<?xml version="1.0" encoding="UTF-8" standalone="no"?>
<!-- Uploaded to: SVG Repo, www.svgrepo.com, Generator: SVG Repo Mixer Tools -->

<svg
   height="800"
   width="800"
   version="1.1"
   id="_x32_"
   viewBox="0 0 512 512"
   xml:space="preserve"
   xmlns="http://www.w3.org/2000/svg"
   xmlns:svg="http://www.w3.org/2000/svg"><defs
   id="defs39" />
<style
   type="text/css"
   id="style2">
	.st0{fill:#000000;}
</style>
<g
   id="g34">
	<path
   class="st0"
   d="M 449.532,105.602 288.463,8.989 C 278.474,2.994 267.235,0 256.011,0 244.772,0 233.528,2.994 223.544,8.989 L 62.475,105.602 c -19.012,11.406 -30.647,31.95 -30.647,54.117 v 192.562 c 0,22.168 11.635,42.711 30.647,54.117 l 161.069,96.613 c 9.984,5.988 21.228,8.989 32.467,8.989 11.225,0 22.463,-3.001 32.452,-8.989 l 161.069,-96.613 c 19.012,-11.406 30.64,-31.949 30.64,-54.117 V 159.719 c 0,-22.167 -11.628,-42.711 -30.64,-54.117 z M 250.599,492.733 c -6.029,-0.745 -11.93,-2.719 -17.32,-5.948 L 72.21,390.172 C 58.904,382.183 50.754,367.803 50.754,352.281 V 159.719 c 0,-6.022 1.236,-11.862 3.518,-17.233 L 250.6,260.246 V 492.733 Z M 59.669,133.114 c 3.364,-4.464 7.593,-8.318 12.541,-11.285 L 233.279,25.216 c 6.995,-4.196 14.85,-6.291 22.732,-6.291 7.868,0 15.723,2.095 22.718,6.291 l 161.069,96.613 c 4.941,2.967 9.184,6.821 12.54,11.285 L 256.011,250.881 Z m 401.585,219.167 c 0,15.522 -8.15,29.902 -21.456,37.891 l -161.069,96.613 c -5.398,3.229 -11.292,5.203 -17.321,5.948 V 260.246 l 196.328,-117.76 c 2.283,5.37 3.518,11.211 3.518,17.233 z"
   id="path4"
   style="fill:#000000;fill-opacity:1;stroke:#000000;stroke-opacity:1" />
	<path
   class="st0"
   d="m 160.209,119.875 c -9.828,-7.278 -26.021,-7.465 -36.165,-0.41 -10.144,7.056 -10.399,18.67 -0.57,25.947 9.828,7.277 26.022,7.459 36.159,0.41 10.15,-7.056 10.405,-18.67 0.576,-25.947 z"
   id="path6" />
	<path
   class="st0"
   d="m 279.159,48.686 c -9.829,-7.277 -26.022,-7.458 -36.172,-0.403 -10.137,7.049 -10.393,18.664 -0.564,25.941 9.829,7.284 26.022,7.458 36.159,0.416 10.15,-7.062 10.405,-18.677 0.577,-25.954 z"
   id="path8" />
	<path
   class="st0"
   d="m 220.59,82.024 c -9.834,-7.27 -26.028,-7.458 -36.172,-0.403 -10.15,7.049 -10.406,18.664 -0.571,25.941 9.829,7.284 26.022,7.458 36.166,0.416 10.138,-7.062 10.399,-18.676 0.577,-25.954 z"
   id="path10" />
	<path
   class="st0"
   d="m 267.437,184.754 c -9.828,-7.277 -26.015,-7.459 -36.159,-0.41 -10.15,7.056 -10.405,18.671 -0.577,25.947 9.828,7.284 26.021,7.459 36.172,0.41 10.137,-7.056 10.392,-18.67 0.564,-25.947 z"
   id="path12" />
	<path
   class="st0"
   d="m 386.385,113.564 c -9.828,-7.271 -26.021,-7.458 -36.158,-0.403 -10.151,7.049 -10.406,18.664 -0.577,25.941 9.828,7.284 26.02,7.458 36.172,0.416 10.137,-7.062 10.392,-18.676 0.563,-25.954 z"
   id="path14" />
	<path
   class="st0"
   d="m 327.817,146.903 c -9.829,-7.27 -26.022,-7.458 -36.172,-0.403 -10.137,7.049 -10.392,18.664 -0.564,25.941 9.828,7.284 26.021,7.465 36.158,0.416 10.152,-7.062 10.407,-18.669 0.578,-25.954 z"
   id="path16" />
	<path
   class="st0"
   d="m 89.289,248.303 c 11.158,6.083 20.194,1.961 20.194,-9.19 0,-11.158 -9.036,-25.128 -20.194,-31.21 -11.157,-6.083 -20.207,-1.967 -20.207,9.19 -10e-4,11.151 9.049,25.128 20.207,31.21 z"
   id="path18" />
	<path
   class="st0"
   d="m 202.061,309.771 c 11.158,6.082 20.208,1.967 20.208,-9.184 0,-11.157 -9.05,-25.135 -20.208,-31.217 -11.15,-6.076 -20.194,-1.961 -20.194,9.198 0,11.151 9.044,25.121 20.194,31.203 z"
   id="path20" />
	<path
   class="st0"
   d="m 89.289,361.082 c 11.158,6.076 20.194,1.967 20.194,-9.19 0,-11.158 -9.036,-25.129 -20.194,-31.21 -11.157,-6.083 -20.207,-1.968 -20.207,9.19 -10e-4,11.157 9.049,25.128 20.207,31.21 z"
   id="path22" />
	<path
   class="st0"
   d="m 202.061,422.55 c 11.158,6.082 20.208,1.967 20.208,-9.191 0,-11.151 -9.05,-25.128 -20.208,-31.21 -11.15,-6.076 -20.194,-1.961 -20.194,9.19 0,11.158 9.044,25.129 20.194,31.211 z"
   id="path24" />
	<path
   class="st0"
   d="m 145.675,335.424 c 11.158,6.082 20.201,1.967 20.201,-9.191 0,-11.151 -9.044,-25.128 -20.201,-31.204 -11.158,-6.082 -20.201,-1.967 -20.201,9.185 0,11.156 9.043,25.127 20.201,31.21 z"
   id="path26" />
	<path
   class="st0"
   d="m 418.341,207.902 c -11.158,6.082 -20.208,20.053 -20.208,31.21 0,11.151 9.05,15.273 20.208,9.19 11.144,-6.082 20.194,-20.059 20.194,-31.21 0,-11.157 -9.049,-15.273 -20.194,-9.19 z"
   id="path28" />
	<path
   class="st0"
   d="m 305.555,382.149 c -11.158,6.082 -20.194,20.059 -20.194,31.21 0,11.158 9.036,15.273 20.194,9.191 11.158,-6.082 20.194,-20.053 20.194,-31.211 0,-11.151 -9.035,-15.265 -20.194,-9.19 z"
   id="path30" />
	<path
   class="st0"
   d="m 361.948,295.028 c -11.158,6.076 -20.207,20.053 -20.207,31.204 0,11.158 9.05,15.273 20.207,9.191 11.158,-6.083 20.194,-20.053 20.194,-31.21 0,-11.151 -9.036,-15.266 -20.194,-9.185 z"
   id="path32" />
<path
   style="fill:#bd4a49;fill-opacity:1;stroke:#000000;stroke-width:4.77897;stroke-opacity:1"
   d="m 568.23719,224.91977 c -17.64584,-2.04684 -31.23069,-13.03746 -32.31777,-26.1462 -1.00651,-12.13714 10.64178,-24.41064 26.67524,-28.10701 6.20616,-1.43077 19.74418,-1.21414 26.00309,0.4161 24.69241,6.43156 33.55418,28.4786 17.42343,43.34741 -9.25843,8.53412 -22.63283,12.24716 -37.78399,10.4897 z"
   id="path4168"
   transform="scale(0.64)" /><path
   style="fill:#bd4a49;fill-opacity:1;stroke:#000000;stroke-width:4.77897;stroke-opacity:1"
   d="m 471.4673,276.17206 c -10.9992,-2.66631 -20.90188,-9.46204 -24.89834,-17.08655 -2.78142,-5.30642 -2.78142,-13.93987 0,-19.24629 8.7991,-16.78704 38.75487,-23.80306 58.70605,-13.74969 13.62167,6.86394 19.92746,17.76445 16.69961,28.86783 -4.76343,16.38564 -28.79242,26.47858 -50.50732,21.2147 z"
   id="path4170"
   transform="scale(0.64)" /><path
   style="fill:#bd4a49;fill-opacity:1;stroke:#000000;stroke-width:4.77897;stroke-opacity:1"
   d="m 630.82437,389.61954 c -6.23878,-3.85366 -8.63811,-9.54004 -7.87793,-18.6706 0.94952,-11.40493 6.51525,-22.90642 16.23989,-33.55947 9.91752,-10.86435 23.22461,-17.57565 32.18465,-16.23201 7.40794,1.11089 13.43238,9.11197 13.45045,17.8636 0.0287,13.89866 -11.4147,33.90831 -25.32322,44.27957 -10.31513,7.69174 -22.20827,10.31266 -28.67384,6.31891 z"
   id="path4172"
   transform="scale(0.64)" /><path
   style="fill:#bd4a49;fill-opacity:1;stroke:#000000;stroke-width:4.77897;stroke-opacity:1"
   d="m 545.75866,527.42766 c -3.62929,-1.00661 -7.39706,-4.43182 -9.17043,-8.33669 -5.5823,-12.29188 1.66622,-32.95808 16.79508,-47.88428 18.93063,-18.67704 39.91237,-18.34078 42.95526,0.68841 2.11384,13.21921 -9.87148,36.51307 -24.19808,47.02976 -9.38053,6.88594 -19.94042,10.28937 -26.38183,8.5028 z"
   id="path4174"
   transform="scale(0.64)" /><path
   style="fill:#bd4a49;fill-opacity:1;stroke:#000000;stroke-width:4.77897;stroke-opacity:1"
   d="m 454.50411,662.09199 c -7.71029,-4.26978 -9.96318,-17.00937 -5.32981,-30.13885 7.15761,-20.28237 27.48836,-38.40475 43.0847,-38.40475 4.88898,0 6.41743,0.42613 9.23406,2.57448 4.76455,3.6341 6.64894,8.1681 6.62438,15.9388 -0.0387,12.25862 -6.57576,25.63323 -18.27276,37.38571 -9.22744,9.27121 -16.98351,13.51635 -25.7226,14.07875 -4.96524,0.31954 -6.99877,0.0163 -9.61797,-1.43414 z"
   id="path4176"
   transform="scale(0.64)" /><path
   style="fill:#bd4a49;fill-opacity:1;stroke:#000000;stroke-width:4.77897;stroke-opacity:1"
   d="m 317.80007,660.38897 c -22.6741,-10.86627 -40.112,-45.3384 -30.25661,-59.81282 3.66561,-5.3836 6.7966,-7.02776 13.38305,-7.02776 9.06751,0 17.10518,4.31642 27.40655,14.71798 8.73524,8.82019 13.78491,17.03685 16.72437,27.21333 2.16506,7.49551 1.64655,17.66742 -1.08881,21.35952 -5.94162,8.01984 -14.43653,9.17217 -26.16855,3.54975 z"
   id="path4178"
   transform="scale(0.64)" /><path
   style="fill:#bd4a49;fill-opacity:1;stroke:#000000;stroke-width:4.77897;stroke-opacity:1"
   d="m 321.82874,486.09776 c -16.86618,-6.24208 -33.11454,-26.19609 -36.49032,-44.81244 -2.56893,-14.16677 3.89009,-24.08102 15.68852,-24.08102 12.37193,0 29.37723,12.7069 38.54472,28.80185 9.10494,15.98511 9.11089,32.77359 0.014,39.39958 -3.72517,2.71332 -11.47884,3.0155 -17.7569,0.69203 z"
   id="path4180"
   transform="scale(0.64)" /><path
   style="fill:#bd4a49;fill-opacity:1;stroke:#000000;stroke-width:4.77897;stroke-opacity:1"
   d="m 233.99533,526.22438 c -11.73433,-4.22421 -24.04044,-15.68126 -30.80099,-28.67589 -7.39935,-14.2225 -8.58705,-25.89383 -3.42828,-33.68925 10.12068,-15.29339 38.77452,-2.15474 52.47132,24.05968 9.19399,17.59646 8.29661,32.68327 -2.26069,38.00701 -5.14206,2.59298 -9.3872,2.67226 -15.98136,0.29845 z"
   id="path4182"
   transform="scale(0.64)" /><path
   style="fill:#bd4a49;fill-opacity:1;stroke:#000000;stroke-width:4.77897;stroke-opacity:1"
   d="m 148.88742,567.2915 c -6.83369,-1.6235 -14.23782,-6.35217 -21.76675,-13.9014 -11.75283,-11.78451 -17.53648,-23.22324 -18.35666,-36.30527 -0.35408,-5.64767 -0.0735,-7.35979 1.80014,-10.98393 3.0631,-5.92492 7.37286,-8.60986 13.82023,-8.60986 15.71356,0 34.55207,16.28983 42.98615,37.17052 8.35293,20.67975 -0.79637,36.83185 -18.48311,32.62994 z"
   id="path4184"
   transform="scale(0.64)" /><path
   style="fill:#bd4a49;fill-opacity:1;stroke:#000000;stroke-width:4.77897;stroke-opacity:1"
   d="m 145.60973,390.06578 c -6.38687,-2.28145 -12.61514,-6.56367 -18.93148,-13.0163 -20.85039,-21.30022 -24.30088,-50.69222 -6.51335,-55.4819 4.86793,-1.3108 9.60082,-0.50018 16.65177,2.85202 11.83414,5.62623 21.54726,15.71475 28.16661,29.25522 7.9673,16.2978 7.09902,30.11611 -2.25053,35.8166 -3.6624,2.233 -11.7228,2.50337 -17.12302,0.57436 z"
   id="path4186"
   transform="scale(0.64)" /><path
   style="fill:#bd4a49;fill-opacity:1;stroke:#000000;stroke-width:4.77897;stroke-opacity:1"
   d="m 379.45042,335.94073 c -17.11244,-3.43481 -29.66778,-15.06569 -29.49066,-27.31925 0.17747,-12.27702 10.96115,-22.79744 27.32181,-26.6548 20.65188,-4.86909 42.95431,3.67157 49.53526,18.96943 6.18527,14.37803 -6.03982,30.22752 -26.69155,34.60487 -6.88311,1.45894 -14.64973,1.60911 -20.67486,0.39975 z"
   id="path4190"
   transform="scale(0.64)" /><path
   style="fill:#bd4a49;fill-opacity:1;stroke:#000000;stroke-width:4.77897;stroke-opacity:1"
   d="m 211.94209,234.60464 c -11.14241,-1.99346 -21.93691,-8.7803 -26.58792,-16.71666 -5.4399,-9.28248 -3.44995,-19.38273 5.46096,-27.71784 20.24448,-18.93635 62.40824,-11.86755 69.23244,11.60689 1.81763,6.25241 1.16101,10.19135 -2.80117,16.80368 -7.23545,12.07498 -27.43767,19.22041 -45.30431,16.02393 z"
   id="path4192"
   transform="scale(0.64)" /><path
   style="fill:#bd4a49;fill-opacity:1;stroke:#000000;stroke-width:4.77897;stroke-opacity:1"
   d="m 307.28793,175.76715 c -4.29647,-0.79686 -13.78393,-4.43234 -17.20818,-6.59398 -4.40598,-2.78137 -10.35616,-9.43209 -12.03642,-13.45352 -5.26035,-12.58978 3.97768,-26.98366 21.12157,-32.90975 16.60054,-5.73827 37.18212,-2.0343 48.22041,8.678 18.54679,17.99904 2.07583,43.11023 -29.10574,44.37383 -4.73118,0.19172 -9.67742,0.14916 -10.99164,-0.0946 z"
   id="path4194"
   transform="scale(0.64)" /><path
   style="fill:#bd4a49;fill-opacity:1;stroke:#000000;stroke-width:4.77897;stroke-opacity:1"
   d="m 393.54903,122.29855 c -10.41303,-2.80399 -19.45861,-9.47656 -23.13111,-17.06292 -2.30669,-4.765 -2.58505,-12.520627 -0.61832,-17.22768 3.19295,-7.641799 11.94257,-14.514945 22.82721,-17.931611 6.79557,-2.133112 19.46171,-2.524373 26.85675,-0.829613 15.66369,3.589731 27.35037,15.04578 27.35037,26.810622 0,5.501372 -3.67361,13.168372 -8.22381,17.163502 -4.16407,3.6561 -11.8414,7.5896 -18.06054,9.25336 -6.16398,1.64901 -20.57247,1.55527 -27.00055,-0.17566 z"
   id="path4196"
   transform="scale(0.64)" /><path
   style="fill:#ff0083;fill-opacity:1;stroke:#000000;stroke-width:4.77897;stroke-opacity:1"
   d="m 247.23911,298.83827 -152.282987,-91.43086 6.617597,-6.31842 c 5.77393,-5.51288 23.39606,-16.38456 138.22531,-85.2758 108.09549,-64.851345 133.00926,-79.424826 139.45273,-81.573819 7.00047,-2.33476 9.23409,-2.616428 20.74824,-2.616428 11.51415,0 13.74777,0.281668 20.74824,2.616428 6.44347,2.148993 31.35724,16.722474 139.45273,81.573819 115.0124,69.00112 132.44783,79.75852 138.27022,85.3107 l 6.66251,6.35331 -152.5164,91.48243 c -83.88402,50.31533 -152.64663,91.44351 -152.8058,91.39596 -0.15917,-0.0476 -68.81675,-41.23034 -152.57239,-91.51732 z m 150.68076,39.95146 c 22.71408,-3.68584 37.0987,-20.00673 32.27067,-36.61456 -1.74997,-6.01967 -8.09906,-13.69466 -14.368,-17.36851 -18.19322,-10.66193 -45.0713,-8.70265 -59.19371,4.31494 -8.68021,8.00113 -11.64084,19.8603 -7.32917,29.35785 3.99286,8.7953 15.93029,17.22756 28.15404,19.88722 7.22995,1.57311 12.68414,1.68585 20.46617,0.42306 z m 96.85966,-59.64703 c 18.55441,-3.93256 30.42955,-15.60096 30.42955,-29.89978 0,-20.3343 -25.33548,-34.7716 -51.69748,-29.45953 -10.49922,2.11564 -18.85152,6.28342 -24.33047,12.14085 -5.61367,6.00148 -7.12617,9.75476 -7.12617,17.68356 0,8.13055 2.30997,13.13173 8.73245,18.90609 11.18797,10.05895 27.77388,14.06622 43.99212,10.62881 z M 237.71282,235.62033 c 17.19516,-5.31104 28.41285,-19.52283 25.53742,-32.35357 -4.31966,-19.27518 -28.64175,-30.83068 -53.71123,-25.51834 -13.47806,2.85605 -25.87005,12.60647 -28.87288,22.71809 -1.82513,6.14587 -1.8178,7.76061 0.064,14.09731 2.92753,9.85808 15.27097,19.31498 29.42474,22.5437 7.42929,1.69475 19.33646,1.05217 27.55795,-1.48719 z m 351.01356,-9.12598 c 11.62531,-3.02801 20.02898,-8.9124 25.21112,-17.65325 2.16218,-3.64702 2.54659,-5.39118 2.5278,-11.46953 -0.0262,-8.48011 -1.90288,-12.7294 -8.26217,-18.70777 -8.08406,-7.59982 -16.1821,-10.77462 -29.56231,-11.58978 -11.18925,-0.68168 -19.10934,0.67474 -26.89856,4.60673 -20.33231,10.26372 -24.65588,31.32387 -9.2821,45.21316 4.59206,4.14864 13.96503,8.81886 20.12845,10.02929 6.91528,1.35808 20.10833,1.14162 26.13777,-0.42885 z m -258.2751,-49.71372 c 7.59797,-1.86481 14.51373,-5.56535 19.23408,-10.29192 5.87979,-5.88754 7.78178,-10.37027 7.78178,-18.34056 0,-10.94393 -5.82924,-19.34521 -17.51611,-25.24472 -31.78535,-16.04519 -73.30357,4.8558 -64.96057,32.70229 1.48713,4.9636 10.2403,14.45807 15.97588,17.32887 4.48706,2.24587 12.07767,4.87601 16.32159,5.65539 3.81678,0.70094 17.19235,-0.34385 23.16335,-1.80935 z m 87.94368,-51.04841 c 6.90499,-1.13097 16.988,-5.89404 21.93139,-10.3601 12.01107,-10.85128 11.93402,-27.971959 -0.17397,-38.651378 -8.62684,-7.609 -19.14492,-11.248818 -32.50602,-11.248818 -14.67593,0 -26.97185,4.858192 -35.26672,13.934104 -9.58103,10.483165 -8.9588,25.034692 1.49398,34.939052 10.87126,10.30089 26.5968,14.32297 44.52134,11.38714 z"
   id="path8315"
   transform="scale(0.64)" /><path
   style="fill:#ffffff;fill-opacity:1;stroke:#000000;stroke-width:4.77897;stroke-opacity:1"
   d="m 250.06086,297.26837 c -81.678,-49.0806 -148.8878,-89.61981 -149.35511,-90.08711 -2.331366,-2.33137 14.07183,-12.78351 119.60488,-76.21241 123.20702,-74.05155 152.75264,-91.315578 161.32443,-94.264705 7.57521,-2.606258 29.15467,-2.606258 36.72988,0 8.6307,2.969395 35.78843,18.832477 159.00048,92.873655 86.0894,51.73325 106.51117,64.30041 115.92843,71.3401 5.82164,4.35185 6.80965,5.46732 5.73477,6.47456 -2.15602,2.02029 -296.93565,178.41042 -298.76543,178.77514 -0.98048,0.19543 -64.39432,-37.33688 -150.20233,-88.89923 z m 149.53636,43.96586 c 20.37927,-3.8992 33.97506,-16.8533 33.97506,-32.37151 0,-7.87114 -2.25751,-13.23625 -8.27758,-19.67219 -8.70171,-9.30284 -20.49922,-13.79505 -36.28634,-13.81701 -18.89993,-0.0263 -33.88304,7.48929 -41.16225,20.64713 -2.43546,4.4023 -2.79685,6.04141 -2.80032,12.70097 -0.005,9.32792 1.68614,13.27221 8.61227,20.08842 8.04667,7.91896 22.00972,13.56062 34.07148,13.7663 2.45077,0.0418 7.79122,-0.56216 11.86768,-1.34211 z m 99.80541,-60.31367 c 11.92986,-3.54899 21.10224,-10.34547 25.63456,-18.99449 2.11688,-4.03965 2.52442,-6.05177 2.52442,-12.4637 0,-9.28627 -2.50804,-14.88398 -9.6705,-21.58362 -14.2538,-13.33275 -40.81912,-15.71912 -60.90657,-5.47127 -5.09503,2.59929 -12.76282,9.94225 -15.25215,14.60603 -2.98033,5.58368 -2.95669,19.35673 0.0429,24.98178 4.64043,8.70212 17.21866,17.07336 30.03439,19.98892 7.35508,1.67327 20.03604,1.18445 27.59297,-1.06365 z m -263.58455,-42.0199 c 17.83781,-4.34819 30.33853,-17.35049 30.36135,-31.57954 0.0419,-26.07249 -38.52773,-42.43989 -67.54079,-28.66165 -26.52007,12.59432 -29.31313,38.9315 -5.74675,54.18894 11.89969,7.70413 27.26333,9.87029 42.92619,6.05225 z m 357.65393,-10.89192 c 8.01571,-2.7939 12.83967,-5.85055 18.08764,-11.46104 6.05689,-6.47532 7.31729,-9.80345 7.31729,-19.32157 0,-9.70927 -1.83195,-13.94256 -8.9447,-20.6695 -9.41946,-8.90853 -18.52606,-12.01264 -35.49974,-12.10056 -9.58598,-0.0497 -12.51282,0.30115 -17.82242,2.1362 -24.54302,8.48226 -33.71223,32.47541 -18.87468,49.38959 5.59173,6.37436 16.28127,12.17187 25.70546,13.94147 7.21209,1.35422 23.66168,0.30551 30.03115,-1.91459 z M 329.42163,179.6603 c 12.79363,-2.54315 23.42272,-9.69142 27.96532,-18.80723 3.5428,-7.10946 3.5428,-18.30038 0,-25.40984 -4.72299,-9.47781 -16.49798,-17.10449 -30.73449,-19.90676 -21.40353,-4.21301 -45.06818,5.3321 -52.96182,21.36208 -1.75133,3.55652 -2.245,6.13535 -2.245,11.7275 0,8.79465 2.31479,13.31875 10.86489,21.23463 5.71738,5.29329 14.89656,9.62763 23.89362,11.28238 4.44149,0.81689 15.06037,0.13873 23.21748,-1.48276 z m 89.27977,-51.19342 c 7.81901,-1.43835 18.48522,-6.55611 23.71944,-11.38084 9.42877,-8.69114 12.19581,-22.038322 6.83877,-32.98771 -11.62151,-23.753523 -54.18494,-28.998104 -76.0195,-9.36697 -16.10107,14.476257 -13.03376,35.88178 6.85518,47.83945 9.91259,5.95966 25.40131,8.32516 38.60611,5.89607 z"
   id="path9496"
   transform="scale(0.64)" /><path
   style="fill:#ffffff;fill-opacity:1;stroke:#000000;stroke-width:4.77897;stroke-opacity:1"
   d="m 409.79441,587.6237 0.24143,-180.35719 151.88082,-91.13117 c 83.53446,-50.12214 152.23653,-90.77546 152.67128,-90.34071 0.43474,0.43474 1.543,2.92708 2.46279,5.53853 1.56288,4.43726 1.69019,15.27411 1.94475,165.5437 0.30622,180.76289 0.80115,167.83278 -7.03131,183.69675 -3.59261,7.27653 -5.93978,10.5095 -12.20834,16.8157 -7.65379,7.69976 -9.57335,8.89423 -139.46159,86.78105 -110.84613,66.46833 -132.91322,79.35679 -139.35639,81.39218 -4.21047,1.33009 -8.49454,2.41834 -9.52014,2.41834 -1.84338,0 -1.86196,-2.06538 -1.6233,-180.35718 z m 60.34212,77.5989 c 7.87999,-2.05247 13.40229,-5.57642 21.65788,-13.82053 11.73015,-11.71384 17.95002,-23.87605 18.83327,-36.8262 0.74214,-10.88109 -2.48276,-18.45099 -9.37985,-22.01761 -3.95269,-2.04401 -14.12838,-1.78712 -20.20839,0.51018 -11.53571,4.3587 -24.33541,16.94718 -31.30073,30.7842 -8.87214,17.62502 -7.25977,35.11191 3.74936,40.66349 4.99718,2.51993 9.02923,2.69103 16.64846,0.70647 z m 87.1298,-135.75501 c 18.98824,-4.92072 37.54345,-26.65185 41.62938,-48.75469 1.80551,-9.76687 -1.62882,-19.28236 -8.50184,-23.556 -2.81806,-1.75227 -4.90461,-2.19872 -10.27617,-2.19872 -5.91328,0 -7.66949,0.45931 -14.31574,3.74407 -17.29549,8.54789 -32.27282,29.84342 -33.63241,47.82026 -0.84132,11.12414 2.90055,19.09144 10.61077,22.59279 4.81979,2.18876 7.17809,2.24611 14.48601,0.35229 z m 94.53979,-138.40375 c 11.99222,-5.49022 21.97943,-15.53335 29.14685,-29.31006 6.95965,-13.37732 8.39369,-23.63687 4.47893,-32.04374 -5.74861,-12.34508 -17.40507,-14.77391 -32.62425,-6.79786 -7.36009,3.85726 -20.12563,16.43712 -24.71941,24.35985 -6.66342,11.49216 -9.64339,24.99446 -7.36826,33.38568 1.28489,4.73896 5.95382,10.44886 10.08662,12.3355 4.41643,2.01611 14.38123,1.10057 20.99952,-1.92937 z"
   id="path9498"
   transform="scale(0.64)" /><path
   style="fill:#ffffff;fill-opacity:1;stroke:#000000;stroke-width:4.77897;stroke-opacity:1"
   d="m 378.7791,765.52085 c -5.97536,-1.92394 -32.16721,-17.24476 -139.0681,-81.34734 -130.13441,-78.03445 -131.79935,-79.07068 -139.51014,-86.8281 -6.423968,-6.46281 -8.56579,-9.43629 -12.11251,-16.8157 -7.935562,-16.51097 -7.418143,-3.10485 -7.09679,-183.87499 0.266718,-150.03627 0.39519,-160.88506 1.957751,-165.32156 0.919766,-2.61145 2.028006,-5.10379 2.462754,-5.53853 0.434749,-0.43475 69.136825,40.21857 152.671275,90.34071 l 151.88082,91.13117 0.24143,180.35719 0.24143,180.35718 -2.15302,-0.0448 c -1.18416,-0.0247 -5.46587,-1.11151 -9.5149,-2.41521 z M 341.42204,663.17701 c 6.02278,-4.86791 7.44423,-8.22117 7.43428,-17.53782 -0.011,-10.26452 -2.69027,-18.47195 -9.21453,-28.22653 -5.75158,-8.59934 -17.54905,-19.67837 -24.68784,-23.18442 -4.59715,-2.25778 -6.42865,-2.59144 -14.22464,-2.59144 h -8.9481 l -4.11627,4.54656 c -5.13316,5.66974 -6.48621,10.93561 -5.17995,20.15947 2.81532,19.87975 20.08953,41.72447 38.32489,48.46514 7.70545,2.84831 15.86948,2.20231 20.61216,-1.63096 z m -177.1872,-95.19548 c 8.83174,-4.89407 11.48244,-19.58754 6.05558,-33.56758 -6.1017,-15.71848 -17.68832,-29.12969 -30.73913,-35.57974 -6.80608,-3.36376 -8.28072,-3.73266 -14.92077,-3.73266 -6.79106,0 -7.65071,0.22861 -10.97393,2.91832 -5.74327,4.64841 -7.5835,9.12232 -7.44875,18.10916 0.21341,14.23285 6.12828,26.45387 18.96643,39.18758 14.50386,14.38586 28.03675,18.77374 39.06057,12.66492 z m 86.27842,-39.32588 c 8.08092,-3.76276 11.52328,-10.74738 10.61809,-21.54437 -2.51631,-30.01463 -37.25764,-60.79161 -57.06151,-50.5502 -7.3855,3.81936 -11.24649,12.12221 -10.11645,21.75489 2.50828,21.38119 20.37933,44.05763 40.09023,50.87018 6.63537,2.29334 10.68526,2.16289 16.46964,-0.5305 z m 86.00992,-38.9317 c 5.75096,-1.44811 10.41098,-6.87252 11.9986,-13.96676 4.23177,-18.90955 -11.8319,-46.69633 -33.06076,-57.18821 -6.68992,-3.30634 -8.40839,-3.75417 -14.40599,-3.75417 -5.78836,0 -7.39145,0.38484 -10.68646,2.56538 -11.01016,7.28617 -11.03907,25.49246 -0.0703,44.26856 7.37258,12.62019 22.91687,25.52695 33.82859,28.0886 5.20648,1.22227 7.49885,1.21979 12.39632,-0.0134 z M 160.99571,393.3254 c 8.00524,-2.29587 13.32434,-12.28406 12.09806,-22.71772 -2.73171,-23.24265 -23.33989,-47.39302 -44.27259,-51.88228 -8.62115,-1.84891 -16.76521,1.62997 -20.37357,8.70295 -6.70806,13.14889 0.2923,35.31431 16.28357,51.55907 12.6731,12.87398 24.73747,17.6439 36.26453,14.33798 z"
   id="path9500"
   transform="scale(0.64)" /></g>
</svg>
